<?xml version="1.0" encoding="UTF-8"?>
<!--Generator: Apple Native CoreSVG 341-->
<!DOCTYPE svg
PUBLIC "-//W3C//DTD SVG 1.1//EN"
       "http://www.w3.org/Graphics/SVG/1.1/DTD/svg11.dtd">
<svg version="1.1" xmlns="http://www.w3.org/2000/svg" xmlns:xlink="http://www.w3.org/1999/xlink" viewBox="0 0 3300 2200">
 <g id="Notes">
  <rect height="2200" id="artboard" style="fill:white;opacity:1" width="3300" x="0" y="0"/>
  <line style="fill:none;stroke:black;opacity:1;stroke-width:0.5;" x1="263" x2="3036" y1="292" y2="292"/>
  <text style="stroke:none;fill:black;font-family:sans-serif;font-size:13;font-weight:bold;" transform="matrix(1 0 0 1 263 322)">Weight/Scale Variations</text>
  <text style="stroke:none;fill:black;font-family:sans-serif;font-size:13;text-anchor:middle;" transform="matrix(1 0 0 1 559.711 322)">Ultralight</text>
  <text style="stroke:none;fill:black;font-family:sans-serif;font-size:13;text-anchor:middle;" transform="matrix(1 0 0 1 856.422 322)">Thin</text>
  <text style="stroke:none;fill:black;font-family:sans-serif;font-size:13;text-anchor:middle;" transform="matrix(1 0 0 1 1153.13 322)">Light</text>
  <text style="stroke:none;fill:black;font-family:sans-serif;font-size:13;text-anchor:middle;" transform="matrix(1 0 0 1 1449.84 322)">Regular</text>
  <text style="stroke:none;fill:black;font-family:sans-serif;font-size:13;text-anchor:middle;" transform="matrix(1 0 0 1 1746.56 322)">Medium</text>
  <text style="stroke:none;fill:black;font-family:sans-serif;font-size:13;text-anchor:middle;" transform="matrix(1 0 0 1 2043.27 322)">Semibold</text>
  <text style="stroke:none;fill:black;font-family:sans-serif;font-size:13;text-anchor:middle;" transform="matrix(1 0 0 1 2339.98 322)">Bold</text>
  <text style="stroke:none;fill:black;font-family:sans-serif;font-size:13;text-anchor:middle;" transform="matrix(1 0 0 1 2636.69 322)">Heavy</text>
  <text style="stroke:none;fill:black;font-family:sans-serif;font-size:13;text-anchor:middle;" transform="matrix(1 0 0 1 2933.4 322)">Black</text>
  <line style="fill:none;stroke:black;opacity:1;stroke-width:0.5;" x1="263" x2="3036" y1="1903" y2="1903"/>
  <g transform="matrix(0.2 0 0 0.2 263 1933)">
   <path d="m46.2402 4.15039c21.7773 0 39.4531-17.627 39.4531-39.4043s-17.6758-39.4043-39.4531-39.4043c-21.7285 0-39.4043 17.627-39.4043 39.4043s17.6758 39.4043 39.4043 39.4043Zm0-7.42188c-17.6758 0-31.9336-14.3066-31.9336-31.9824s14.2578-31.9824 31.9336-31.9824 31.9824 14.3066 31.9824 31.9824-14.3066 31.9824-31.9824 31.9824Zm-17.9688-31.9824c0 2.14844 1.51367 3.61328 3.75977 3.61328h10.498v10.5957c0 2.19727 1.46484 3.71094 3.61328 3.71094 2.24609 0 3.71094-1.51367 3.71094-3.71094v-10.5957h10.5957c2.19727 0 3.71094-1.46484 3.71094-3.61328 0-2.19727-1.51367-3.71094-3.71094-3.71094h-10.5957v-10.5469c0-2.24609-1.46484-3.75977-3.71094-3.75977-2.14844 0-3.61328 1.51367-3.61328 3.75977v10.5469h-10.498c-2.24609 0-3.75977 1.51367-3.75977 3.71094Z"/>
  </g>
  <g transform="matrix(0.2 0 0 0.2 281.506 1933)">
   <path d="m58.5449 14.5508c27.4902 0 49.8047-22.3145 49.8047-49.8047s-22.3145-49.8047-49.8047-49.8047-49.8047 22.3145-49.8047 49.8047 22.3145 49.8047 49.8047 49.8047Zm0-8.30078c-22.9492 0-41.5039-18.5547-41.5039-41.5039s18.5547-41.5039 41.5039-41.5039 41.5039 18.5547 41.5039 41.5039-18.5547 41.5039-41.5039 41.5039Zm-22.6562-41.5039c0 2.39258 1.66016 4.00391 4.15039 4.00391h14.3555v14.4043c0 2.44141 1.66016 4.15039 4.05273 4.15039 2.44141 0 4.15039-1.66016 4.15039-4.15039v-14.4043h14.4043c2.44141 0 4.15039-1.61133 4.15039-4.00391 0-2.44141-1.70898-4.15039-4.15039-4.15039h-14.4043v-14.3555c0-2.49023-1.70898-4.19922-4.15039-4.19922-2.39258 0-4.05273 1.70898-4.05273 4.19922v14.3555h-14.3555c-2.49023 0-4.15039 1.70898-4.15039 4.15039Z"/>
  </g>
  <g transform="matrix(0.2 0 0 0.2 304.924 1933)">
   <path d="m74.8535 28.3203c35.1074 0 63.623-28.4668 63.623-63.5742s-28.5156-63.623-63.623-63.623-63.5742 28.5156-63.5742 63.623 28.4668 63.5742 63.5742 63.5742Zm0-9.08203c-30.127 0-54.4922-24.3652-54.4922-54.4922s24.3652-54.4922 54.4922-54.4922 54.4922 24.3652 54.4922 54.4922-24.3652 54.4922-54.4922 54.4922Zm-28.8574-54.4922c0 2.58789 1.85547 4.39453 4.58984 4.39453h19.7266v19.7754c0 2.68555 1.85547 4.58984 4.44336 4.58984 2.68555 0 4.54102-1.85547 4.54102-4.58984v-19.7754h19.7754c2.68555 0 4.58984-1.80664 4.58984-4.39453 0-2.73438-1.85547-4.58984-4.58984-4.58984h-19.7754v-19.7266c0-2.73438-1.85547-4.63867-4.54102-4.63867-2.58789 0-4.44336 1.9043-4.44336 4.63867v19.7266h-19.7266c-2.73438 0-4.58984 1.85547-4.58984 4.58984Z"/>
  </g>
  <text style="stroke:none;fill:black;font-family:sans-serif;font-size:13;font-weight:bold;" transform="matrix(1 0 0 1 263 1953)">Design Variations</text>
  <text style="stroke:none;fill:black;font-family:sans-serif;font-size:13;" transform="matrix(1 0 0 1 263 1971)">Symbols are supported in up to nine weights and three scales.</text>
  <text style="stroke:none;fill:black;font-family:sans-serif;font-size:13;" transform="matrix(1 0 0 1 263 1989)">For optimal layout with text and other symbols, vertically align</text>
  <text style="stroke:none;fill:black;font-family:sans-serif;font-size:13;" transform="matrix(1 0 0 1 263 2007)">symbols with the adjacent text.</text>
  <line style="fill:none;stroke:#00AEEF;stroke-width:0.5;opacity:1.0;" x1="776" x2="776" y1="1919" y2="1933"/>
  <g transform="matrix(0.2 0 0 0.2 776 1933)">
   <path d="m16.5527 0.78125c2.58789 0 3.85742-0.976562 4.78516-3.71094l6.29883-17.2363h28.8086l6.29883 17.2363c0.927734 2.73438 2.19727 3.71094 4.73633 3.71094 2.58789 0 4.24805-1.5625 4.24805-4.00391 0-0.830078-0.146484-1.61133-0.537109-2.63672l-22.9004-60.9863c-1.12305-2.97852-3.125-4.49219-6.25-4.49219-3.02734 0-5.07812 1.46484-6.15234 4.44336l-22.9004 61.084c-0.390625 1.02539-0.537109 1.80664-0.537109 2.63672 0 2.44141 1.5625 3.95508 4.10156 3.95508Zm13.4766-28.3691 11.8652-32.8613h0.244141l11.8652 32.8613Z"/>
  </g>
  <line style="fill:none;stroke:#00AEEF;stroke-width:0.5;opacity:1.0;" x1="792.836" x2="792.836" y1="1919" y2="1933"/>
  <text style="stroke:none;fill:black;font-family:sans-serif;font-size:13;font-weight:bold;" transform="matrix(1 0 0 1 776 1953)">Margins</text>
  <text style="stroke:none;fill:black;font-family:sans-serif;font-size:13;" transform="matrix(1 0 0 1 776 1971)">Leading and trailing margins on the left and right side of each symbol</text>
  <text style="stroke:none;fill:black;font-family:sans-serif;font-size:13;" transform="matrix(1 0 0 1 776 1989)">can be adjusted by modifying the x-location of the margin guidelines.</text>
  <text style="stroke:none;fill:black;font-family:sans-serif;font-size:13;" transform="matrix(1 0 0 1 776 2007)">Modifications are automatically applied proportionally to all</text>
  <text style="stroke:none;fill:black;font-family:sans-serif;font-size:13;" transform="matrix(1 0 0 1 776 2025)">scales and weights.</text>
  <g transform="matrix(0.2 0 0 0.2 1289 1933)">
   <path d="m14.209 9.32617 8.49609 8.54492c4.29688 4.3457 9.22852 4.05273 13.8672-1.07422l53.4668-58.9355-4.83398-4.88281-53.0762 58.3984c-1.75781 2.00195-3.41797 2.49023-5.76172 0.146484l-5.85938-5.81055c-2.34375-2.29492-1.80664-4.00391 0.195312-5.81055l57.373-54.0039-4.88281-4.83398-57.959 54.4434c-4.93164 4.58984-5.32227 9.47266-1.02539 13.8184Zm32.0801-90.9668c-2.09961 2.05078-2.24609 4.93164-1.07422 6.88477 1.17188 1.80664 3.4668 2.97852 6.68945 2.14844 7.32422-1.70898 14.9414-2.00195 22.0703 2.68555l-2.92969 7.27539c-1.70898 4.15039-0.830078 7.08008 1.85547 9.81445l11.4746 11.5723c2.44141 2.44141 4.49219 2.53906 7.32422 2.05078l5.32227-0.976562 3.32031 3.36914-0.195312 2.7832c-0.195312 2.49023 0.439453 4.39453 2.88086 6.78711l3.80859 3.71094c2.39258 2.39258 5.46875 2.53906 7.8125 0.195312l14.5508-14.5996c2.34375-2.34375 2.24609-5.32227-0.146484-7.71484l-3.85742-3.80859c-2.39258-2.39258-4.24805-3.17383-6.64062-2.97852l-2.88086 0.244141-3.22266-3.17383 1.2207-5.61523c0.634766-2.83203-0.146484-5.0293-3.07617-7.95898l-10.9863-10.9375c-16.6992-16.6016-38.8672-16.2109-53.3203-1.75781Zm7.4707 1.85547c12.1582-8.88672 28.6133-7.37305 39.7461 3.75977l12.1582 12.0605c1.17188 1.17188 1.36719 2.09961 1.02539 3.80859l-1.61133 7.42188 7.51953 7.42188 4.93164-0.292969c1.26953-0.0488281 1.66016 0.0488281 2.63672 1.02539l2.88086 2.88086-12.207 12.207-2.88086-2.88086c-0.976562-0.976562-1.12305-1.36719-1.07422-2.68555l0.341797-4.88281-7.4707-7.42188-7.61719 1.26953c-1.61133 0.341797-2.34375 0.195312-3.56445-0.976562l-10.0098-10.0098c-1.26953-1.17188-1.41602-2.00195-0.634766-3.85742l4.39453-10.4492c-7.8125-7.27539-17.9688-10.4004-28.125-7.42188-0.78125 0.195312-1.07422-0.439453-0.439453-0.976562Z"/>
  </g>
  <text style="stroke:none;fill:black;font-family:sans-serif;font-size:13;font-weight:bold;" transform="matrix(1 0 0 1 1289 1953)">Exporting</text>
  <text style="stroke:none;fill:black;font-family:sans-serif;font-size:13;" transform="matrix(1 0 0 1 1289 1971)">Symbols should be outlined when exporting to ensure the</text>
  <text style="stroke:none;fill:black;font-family:sans-serif;font-size:13;" transform="matrix(1 0 0 1 1289 1989)">design is preserved when submitting to Xcode.</text>
  <text id="template-version" style="stroke:none;fill:black;font-family:sans-serif;font-size:13;text-anchor:end;" transform="matrix(1 0 0 1 3036 1933)">Template v.2.0</text>
  <text style="stroke:none;fill:black;font-family:sans-serif;font-size:13;text-anchor:end;" transform="matrix(1 0 0 1 3036 1951)">Requires Xcode 12 or greater</text>
  <text id="descriptive-name" style="stroke:none;fill:black;font-family:sans-serif;font-size:13;text-anchor:end;" transform="matrix(1 0 0 1 3036 1969)">Generated from square.3.layers.3d.down.left</text>
  <text style="stroke:none;fill:black;font-family:sans-serif;font-size:13;text-anchor:end;" transform="matrix(1 0 0 1 3036 1987)">Typeset at 100.0 points</text>
  <text style="stroke:none;fill:black;font-family:sans-serif;font-size:13;" transform="matrix(1 0 0 1 263 726)">Small</text>
  <text style="stroke:none;fill:black;font-family:sans-serif;font-size:13;" transform="matrix(1 0 0 1 263 1156)">Medium</text>
  <text style="stroke:none;fill:black;font-family:sans-serif;font-size:13;" transform="matrix(1 0 0 1 263 1586)">Large</text>
 </g>
 <g id="Guides">
  <g id="H-reference" style="fill:#27AAE1;stroke:none;" transform="matrix(1 0 0 1 339 696)">
   <path d="M0.993654 0L3.63775 0L29.3281-67.1323L30.0303-67.1323L30.0303-70.459L28.1226-70.459ZM11.6885-24.4799L46.9815-24.4799L46.2315-26.7285L12.4385-26.7285ZM55.1196 0L57.7637 0L30.6382-70.459L29.4326-70.459L29.4326-67.1323Z"/>
  </g>
  <line id="Baseline-S" style="fill:none;stroke:#27AAE1;opacity:1;stroke-width:0.5;" x1="263" x2="3036" y1="696" y2="696"/>
  <line id="Capline-S" style="fill:none;stroke:#27AAE1;opacity:1;stroke-width:0.5;" x1="263" x2="3036" y1="625.541" y2="625.541"/>
  <g id="H-reference" style="fill:#27AAE1;stroke:none;" transform="matrix(1 0 0 1 339 1126)">
   <path d="M0.993654 0L3.63775 0L29.3281-67.1323L30.0303-67.1323L30.0303-70.459L28.1226-70.459ZM11.6885-24.4799L46.9815-24.4799L46.2315-26.7285L12.4385-26.7285ZM55.1196 0L57.7637 0L30.6382-70.459L29.4326-70.459L29.4326-67.1323Z"/>
  </g>
  <line id="Baseline-M" style="fill:none;stroke:#27AAE1;opacity:1;stroke-width:0.5;" x1="263" x2="3036" y1="1126" y2="1126"/>
  <line id="Capline-M" style="fill:none;stroke:#27AAE1;opacity:1;stroke-width:0.5;" x1="263" x2="3036" y1="1055.54" y2="1055.54"/>
  <g id="H-reference" style="fill:#27AAE1;stroke:none;" transform="matrix(1 0 0 1 339 1556)">
   <path d="M0.993654 0L3.63775 0L29.3281-67.1323L30.0303-67.1323L30.0303-70.459L28.1226-70.459ZM11.6885-24.4799L46.9815-24.4799L46.2315-26.7285L12.4385-26.7285ZM55.1196 0L57.7637 0L30.6382-70.459L29.4326-70.459L29.4326-67.1323Z"/>
  </g>
  <line id="Baseline-L" style="fill:none;stroke:#27AAE1;opacity:1;stroke-width:0.5;" x1="263" x2="3036" y1="1556" y2="1556"/>
  <line id="Capline-L" style="fill:none;stroke:#27AAE1;opacity:1;stroke-width:0.5;" x1="263" x2="3036" y1="1485.54" y2="1485.54"/>
  <line id="right-margin" style="fill:none;stroke:#00AEEF;stroke-width:0.5;opacity:1.0;" x1="1510.46" x2="1510.46" y1="1030.79" y2="1150.12"/>
  <line id="left-margin" style="fill:none;stroke:#00AEEF;stroke-width:0.5;opacity:1.0;" x1="1389.23" x2="1389.23" y1="1030.79" y2="1150.12"/>
 </g>
 <g id="Symbols">
  <g id="Black-L" transform="matrix(1 0 0 1 2849.18 1556)">
   <path d="M97.3365-30.1123C97.3365-40.3066 94.8906-44.5806 85.9998-49.7489L38.7302-77.1411C28.5284-83.0627 16.084-78.8227 16.084-64.1946L16.084-8.45147C16.084 0.927988 18.2285 4.86713 26.5278 9.63188L73.5019 36.7562C86.2229 44.1072 97.3365 39.0028 97.3365 23.9916ZM76.7301-33.3533C78.2482-32.4815 78.5988-31.93 78.5988-30.1042L78.5988 17.3505C78.5988 17.8461 78.0935 18.1698 77.6162 17.8813L36.6291-6.45372C35.2082-7.266 34.8217-8.11229 34.8217-9.68205L34.8217-56.5419C34.8217-57.0043 35.2573-57.3099 35.753-57.0603ZM87.3731 12.7223L101.247 20.7763C113.968 28.1273 125.082 23.0229 125.082 8.01172L125.082-46.0922C125.082-56.2865 122.636-60.5605 113.746-65.7288L66.4549-93.121C56.2739-99.0426 43.8295-94.8026 43.8295-80.1745L43.8295-62.7004L62.5672-52.6254L62.5672-72.523C62.5672-72.9842 63.0028-73.3107 63.4788-73.0402L104.476-49.3332C105.994-48.4614 106.325-47.9099 106.325-46.0853L106.325 1.37057C106.325 1.86625 105.84 2.18987 105.362 1.88063L87.3731-8.80288ZM116.491-1.73333L128.527 5.19197C141.248 12.5429 152.363 7.41769 152.363-7.57385L152.363-61.6778C152.363-71.8929 149.916-76.1669 141.026-81.3144L93.7553-108.707C83.5743-114.627 71.1102-110.387 71.1102-95.7589L71.1102-77.603L89.8468-68.665L89.8468-88.1282C89.8468-88.5894 90.2836-88.8962 90.7793-88.6454L131.776-64.9188C133.273-64.0677 133.625-63.5163 133.625-61.6905L133.625-14.215C133.625-13.7401 133.141-13.3957 132.663-13.7049L116.491-23.2793Z"/>
  </g>
  <g id="Heavy-L" transform="matrix(1 0 0 1 2553.96 1556)">
   <path d="M95.0536-30.7073C95.0536-39.9546 92.7143-44.0426 84.6436-48.7372L36.5882-76.5677C27.3597-81.9087 16.084-78.1286 16.084-64.9609L16.084-8.44449C16.084 0.218453 18.1027 4.01733 25.8404 8.45113L73.4273 35.9296C85.1235 42.6865 95.0536 38.0355 95.0536 24.1909ZM76.4009-34.1997C78.0308-33.2534 78.4746-32.6231 78.4746-30.6154L78.4746 18.807C78.4746 19.3513 77.9797 19.6551 77.4544 19.3545L34.6518-5.87344C33.0865-6.7695 32.6631-7.66315 32.6631-9.42749L32.6631-58.3532C32.6631-58.8764 33.128-59.1903 33.6723-58.9098ZM86.2148 11.4394L100.973 19.9965C112.669 26.7534 122.599 22.1024 122.599 8.25784L122.599-46.6403C122.599-55.8877 120.26-59.9756 112.195-64.6703L64.1034-92.5008C54.9051-97.8418 43.6294-94.0616 43.6294-80.894L43.6294-62.3366L60.2085-53.46L60.2085-74.2919C60.2085-74.8095 60.6734-75.1536 61.1931-74.8428L103.946-50.1327C105.576-49.1864 105.995-48.5562 105.995-46.5541L105.995 2.87398C105.995 3.41825 105.531 3.72206 105 3.39127L86.2148-7.67833ZM114.909-2.75392L127.75 4.63698C139.446 11.3939 149.381 6.71268 149.381-7.10733L149.381-62.0055C149.381-71.283 147.037-75.371 138.971-80.0354L90.9104-107.866C81.7121-113.201 70.4118-109.421 70.4118-96.2535L70.4118-77.5607L86.9853-69.6193L86.9853-89.6816C86.9853-90.1992 87.4558-90.5188 88.0001-90.2326L130.753-65.4979C132.353-64.5818 132.802-63.9515 132.802-61.9438L132.802-12.4912C132.802-11.9771 132.338-11.6431 131.812-11.9739L114.909-21.9019Z"/>
  </g>
  <g id="Bold-L" transform="matrix(1 0 0 1 2259.06 1556)">
   <path d="M92.144-31.4076C92.144-39.4645 89.98-43.24 82.9311-47.3431L33.9297-75.7042C25.8703-80.3528 16.084-77.0817 16.084-65.7646L16.084-8.26537C16.084-0.545822 17.9192 2.99444 24.9056 6.9911L73.2904 34.9299C83.6367 40.9045 92.144 36.8517 92.144 24.5262ZM76.0085-35.133C77.7395-34.1168 78.2687-33.4091 78.2687-31.2381L78.2687 20.6425C78.2687 21.2706 77.7668 21.5737 77.1503 21.2353L32.1187-5.10654C30.4213-6.08025 29.9592-7.00549 29.9592-8.9634L29.9592-60.433C29.9592-61.0777 30.4998-61.4143 31.1278-61.0804ZM84.7183 9.81165L100.65 19.0359C110.996 25.0105 119.503 20.9577 119.503 8.63219L119.503-47.3017C119.503-55.3586 117.339-59.1341 110.303-63.2371L61.2508-91.5983C53.2294-96.2469 43.4431-92.9757 43.4431-81.6586L43.4431-61.7343L57.3183-54.3482L57.3183-76.3402C57.3183-76.9717 57.8589-77.3463 58.4622-76.9745L103.368-51.027C105.099-50.0109 105.603-49.3032 105.603-47.1454L105.603 4.74849C105.603 5.37654 105.139 5.67961 104.509 5.30331L84.7183-6.26511ZM112.957-4.16325L126.893 3.86357C137.24 9.83816 145.76 5.74737 145.76-6.55335L145.76-62.4872C145.76-70.5821 143.583-74.3576 136.547-78.4227L87.5326-106.784C79.5112-111.419 69.7001-108.148 69.7001-96.8309L69.7001-77.3207L83.5622-70.6387L83.5622-91.5505C83.5622-92.182 84.1159-92.5318 84.744-92.1847L129.649-66.2126C131.342-65.2344 131.885-64.5267 131.885-62.3557L131.885-10.4371C131.885-9.84699 131.421-9.50593 130.804-9.88223L112.957-20.278Z"/>
  </g>
  <g id="Semibold-L" transform="matrix(1 0 0 1 1963.59 1556)">
   <path d="M90.1381-31.8905C90.1381-39.1267 88.095-42.6867 81.7505-46.382L32.0969-75.1089C24.8436-79.2802 16.084-76.36 16.084-66.3186L16.084-8.14189C16.084-1.07271 17.7927 2.28927 24.2611 5.98456L73.196 34.2408C82.6118 39.676 90.1381 36.0356 90.1381 24.7574ZM75.738-35.7764C77.5387-34.7121 78.1268-33.951 78.1268-31.6674L78.1268 21.9079C78.1268 22.5937 77.62 22.8963 76.9406 22.532L30.3724-4.57784C28.584-5.60509 28.0952-6.55209 28.0952-8.64345L28.0952-61.8667C28.0952-62.5952 28.6879-62.9474 29.3737-62.5768ZM83.6867 8.68946L100.427 18.3736C109.842 23.8089 117.369 20.1685 117.369 8.89027L117.369-47.7576C117.369-54.9938 115.326-58.5539 109-62.2492L59.2842-90.9761C52.0742-95.1473 43.3146-92.2271 43.3146-82.1858L43.3146-61.3191L55.3259-54.9605L55.3259-77.7524C55.3259-78.4624 55.9186-78.858 56.5795-78.444L102.969-51.6436C104.769-50.5793 105.333-49.8182 105.333-47.5531L105.333 6.04076C105.333 6.72657 104.869 7.02913 104.171 6.62145L83.6867-5.29085ZM111.611-5.13483L126.303 3.33039C135.719 8.76565 143.264 5.08188 143.264-6.17143L143.264-62.8193C143.264-70.0989 141.202-73.6589 134.876-77.3109L85.204-106.038C77.994-110.191 69.2095-107.27 69.2095-97.229L69.2095-77.1552L81.2023-71.3414L81.2023-92.839C81.2023-93.5489 81.8134-93.9197 82.4993-93.5305L128.888-66.7053C130.646-65.6843 131.252-64.9232 131.252-62.6397L131.252-9.02094C131.252-8.3785 130.789-8.03257 130.109-8.44025L111.611-19.1585Z"/>
  </g>
  <g id="Medium-L" transform="matrix(1 0 0 1 1667.83 1556)">
   <path d="M88.6171-32.2566C88.6171-38.8705 86.6657-42.2672 80.8553-45.6533L30.7073-74.6575C24.065-78.4669 16.084-75.8127 16.084-66.7387L16.084-8.04826C16.084-1.47221 17.6967 1.75458 23.7724 5.22137L73.1245 33.7182C81.8346 38.7445 88.6171 35.4168 88.6171 24.9327ZM75.5329-36.2643C77.3864-35.1635 78.0192-34.3619 78.0192-31.993L78.0192 22.8674C78.0192 23.597 77.5087 23.8992 76.7816 23.5151L29.0483-4.17696C27.1908-5.2448 26.6819-6.20831 26.6819-8.40086L26.6819-62.9539C26.6819-63.7459 27.3141-64.1099 28.0437-63.7114ZM82.9045 7.83857L100.258 17.8714C108.968 22.8978 115.75 19.5701 115.75 9.08595L115.75-48.1034C115.75-54.7172 113.799-58.1139 108.011-61.5L57.7931-90.5043C51.1982-94.3136 43.2172-91.6595 43.2172-82.5855L43.2172-61.0042L53.8151-55.4248L53.8151-78.8231C53.8151-79.5926 54.4473-80.0042 55.152-79.5582L102.666-52.1111C104.52-51.0102 105.127-50.2087 105.127-47.8622L105.127 7.02061C105.127 7.75022 104.664 8.0524 103.915 7.62092L82.9045-4.55212ZM110.591-5.87153L125.855 2.92611C134.566 7.95243 141.371 4.57729 141.371-5.88185L141.371-63.0712C141.371-69.7325 139.397-73.1292 133.609-76.4678L83.4383-105.472C76.8435-109.259 68.8375-106.605 68.8375-97.5308L68.8375-77.0297L79.4129-71.8742L79.4129-93.8159C79.4129-94.5854 80.0676-94.972 80.7972-94.551L128.311-67.0789C130.117-66.0255 130.773-65.2239 130.773-62.855L130.773-7.94719C130.773-7.26502 130.31-6.9154 129.583-7.34688L110.591-18.3097Z"/>
  </g>
  <g id="Regular-L" transform="matrix(1 0 0 1 1372.35 1556)">
   <path d="M86.6332-32.7341C86.6332-38.5363 84.8014-41.72 79.6877-44.7028L28.8947-74.0688C23.0495-77.406 16.084-75.0989 16.084-67.2866L16.084-7.92614C16.084-1.99331 17.5716 1.05715 23.135 4.22589L73.0311 33.0366C80.8208 37.5295 86.6332 34.6097 86.6332 25.1614ZM75.2654-36.9007C77.1878-35.7522 77.8788-34.8978 77.8788-32.4175L77.8788 24.1188C77.8788 24.9056 77.3636 25.2073 76.5743 24.7975L27.3212-3.65408C25.3737-4.77486 24.8384-5.7599 24.8384-8.08443L24.8384-64.3719C24.8384-65.2467 25.5221-65.6263 26.3089-65.1914ZM81.8841 6.72871L100.037 17.2165C107.827 21.7094 113.639 18.7895 113.639 9.34119L113.639-48.5543C113.639-54.3565 111.808-57.5401 106.722-60.5229L55.8481-89.8889C50.0557-93.2262 43.0902-90.9191 43.0902-83.1068L43.0902-60.5935L51.8446-56.0304L51.8446-80.2197C51.8446-81.0669 52.5283-81.4992 53.29-81.0116L102.272-52.7208C104.194-51.5724 104.86-50.718 104.86-48.2654L104.86 8.29868C104.86 9.08542 104.397 9.38709 103.58 8.92458L81.8841-3.58856ZM109.26-6.83244L125.272 2.39879C133.061 6.89171 138.901 3.91912 138.901-5.50413L138.901-63.3996C138.901-69.2546 137.042-72.4382 131.956-75.3682L81.1353-104.734C75.3429-108.044 68.3522-105.737 68.3522-97.9245L68.3522-76.866L77.079-72.5692L77.079-95.0902C77.079-95.9373 77.7904-96.3445 78.5771-95.882L127.559-67.5661C129.428-66.4705 130.147-65.6161 130.147-63.1358L130.147-6.54665C130.147-5.81267 129.685-5.45823 128.895-5.92074L109.26-17.2025Z"/>
  </g>
  <g id="Light-L" transform="matrix(1 0 0 1 1076.66 1556)">
   <path d="M84.0949-32.9822C84.0949-37.8492 82.6639-40.2886 78.2945-42.8324L27.0243-72.4847C21.7517-75.5166 16.084-73.1713 16.084-66.9049L16.084-6.70468C16.084-1.78337 17.2662 0.541849 21.9518 3.23346L72.6494 32.5022C78.9887 36.1554 84.0949 33.8845 84.0949 25.9629ZM75.0936-36.8052C76.8443-35.7522 77.4017-34.9742 77.4017-32.7802L77.4017 25.5884C77.4017 26.5851 76.7528 27.0394 75.6964 26.4579L25.031-2.81433C23.2934-3.82059 22.7772-4.65296 22.7772-6.80572L22.7772-64.7536C22.7772-66.0101 23.7663-66.4851 24.763-65.9166ZM80.4528 5.35457L99.9228 16.5866C106.262 20.2398 111.368 17.9689 111.368 10.0473L111.368-48.8978C111.368-53.7648 109.937-56.2042 105.615-58.748L54.264-88.4003C49.0251-91.4322 43.3574-89.0869 43.3574-82.8205L43.3574-59.2003L50.0505-55.7059L50.0505-80.7159C50.0505-81.9257 51.0397-82.4344 52.0494-81.8322L102.367-52.7208C104.118-51.6678 104.688-50.8897 104.688-48.7425L104.688 9.67282C104.688 10.6695 104.073 11.1239 102.97 10.5087L80.4528-2.48162ZM107.962-8.74097L125.367 1.31093C131.706 4.9641 136.859 2.65949 136.859-5.27511L136.859-64.2203C136.859-69.121 135.382-71.5603 131.059-74.0704L79.742-103.723C74.5031-106.708 68.8484-104.363 68.8484-98.0962L68.8484-75.4919L75.4949-72.2257L75.4949-96.0253C75.4949-97.2351 76.5308-97.7568 77.5274-97.1416L127.845-68.0433C129.562-67.0239 130.166-66.2459 130.166-64.0519L130.166-5.64964C130.166-4.68663 129.551-4.1986 128.494-4.8138L107.962-16.6108Z"/>
  </g>
  <g id="Thin-L" transform="matrix(1 0 0 1 781.301 1556)">
   <path d="M80.7377-33.3104C80.7377-36.9405 79.8368-38.3954 76.4518-40.3587L24.5506-70.3896C20.0353-73.0176 16.084-70.6219 16.084-66.4001L16.084-5.08921C16.084-1.50571 16.8623-0.13968 20.3868 1.92088L72.1446 31.7955C76.5654 34.338 80.7377 32.9253 80.7377 27.0231ZM74.8665-36.679C76.3899-35.7522 76.7707-35.0751 76.7707-33.2598L76.7707 27.532C76.7707 28.8064 75.9451 29.4627 74.5352 28.654L22.0019-1.70369C20.542-2.5585 20.051-3.18893 20.051-5.11451L20.051-65.2584C20.051-67.0198 21.444-67.621 22.7184-66.8758ZM78.5596 3.53716L99.7713 15.7537C104.192 18.2962 108.364 16.8835 108.364 10.9813L108.364-49.3522C108.364-52.9823 107.464-54.4372 104.151-56.4005L52.169-86.4314C47.662-89.0594 43.7108-86.6637 43.7108-82.4419L43.7108-57.3577L47.6778-55.2768L47.6778-81.3722C47.6778-83.0616 49.0708-83.6712 50.4087-82.9176L102.493-52.7208C104.017-51.794 104.461-51.1169 104.461-49.3735L104.461 11.4902C104.461 12.7646 103.644 13.4209 102.162 12.6037L78.5596-1.01759ZM106.245-11.2651L125.493-0.127855C129.914 2.41467 134.158 0.993529 134.158-4.97221L134.158-65.3057C134.158-68.9443 133.186-70.3992 129.873-72.354L77.8994-102.385C73.3925-104.941 69.5047-102.545 69.5047-98.3234L69.5047-73.6745L73.3998-71.7714L73.3998-97.2622C73.3998-98.9516 74.8648-99.6247 76.1391-98.8076L128.224-68.6743C129.739-67.756 130.191-67.0789 130.191-65.2635L130.191-4.46327C130.191-3.19737 129.374-2.53264 127.964-3.34977L106.245-15.8283Z"/>
  </g>
  <g id="Ultralight-L" transform="matrix(1 0 0 1 485.282 1556)">
   <path d="M79.0182-33.4784C79.0182-36.4751 78.3888-37.4258 75.508-39.0917L23.2836-69.3165C19.1561-71.7377 16.084-69.3161 16.084-66.1415L16.084-4.26177C16.084-1.3635 16.6555-0.488756 19.5852 1.24859L71.886 31.4335C75.3243 33.4071 79.0182 32.434 79.0182 27.5661ZM74.7501-36.6144C76.1572-35.7522 76.4475-35.1268 76.4475-33.5054L76.4475 28.5275C76.4475 29.9441 75.5314 30.7038 73.9405 29.7788L20.4505-1.13482C19.1328-1.91207 18.6547-2.43906 18.6547-4.24829L18.6547-65.517C18.6547-67.537 20.2546-68.2028 21.6712-67.3671ZM77.59 2.60629L99.6937 15.327C103.132 17.3007 106.826 16.3275 106.826 11.4597L106.826-49.5849C106.826-52.5816 106.197-53.5322 103.401-55.1981L51.0959-85.423C46.9639-87.8441 43.8918-85.4225 43.8918-82.248L43.8918-56.4139L46.4625-55.057L46.4625-81.7084C46.4625-83.6434 48.0624-84.3047 49.5683-83.4736L102.558-52.7208C103.965-51.8587 104.345-51.2333 104.345-49.6968L104.345 12.4211C104.345 13.8377 103.424 14.5974 101.748 13.6768L77.59-0.267726ZM105.366-12.558L125.558-0.864793C128.996 1.10887 132.775 0.140233 132.775-4.81706L132.775-65.8616C132.775-68.8538 132.061-69.8044 129.265-71.4749L76.9556-101.7C72.8236-104.036 69.8409-101.614 69.8409-98.4398L69.8409-72.7436L72.3267-71.5386L72.3267-97.8957C72.3267-99.8307 74.0115-100.581 75.4281-99.6609L128.418-68.9975C129.829-68.1309 130.204-67.5055 130.204-65.8841L130.204-3.85562C130.204-2.43457 129.284-1.67934 127.693-2.5999L105.366-15.4276Z"/>
  </g>
  <g id="Black-M" transform="matrix(1 0 0 1 2867.01 1126)">
   <path d="M77.0287-30.7872C77.0287-39.3723 75.0965-42.7426 67.6045-47.0944L31.5934-67.9783C22.9308-73.0237 12.4609-69.3385 12.4609-56.9597L12.4609-14.3239C12.4609-6.57854 14.1892-3.50443 20.9826 0.406809L56.9574 21.1789C67.4972 27.2708 77.0287 23.0144 77.0287 10.5889ZM59.7057-33.0357C60.7624-32.4371 60.9359-32.088 60.9359-30.8685L60.9359 4.45369C60.9359 4.82441 60.5173 5.11283 60.1527 4.87658L29.7672-13.3206C28.8189-13.8624 28.5537-14.4567 28.5537-15.4823L28.5537-50.2361C28.5537-50.5939 28.9074-50.8364 29.2781-50.6515ZM68.4931 2.83714L78.6611 8.74544C89.2009 14.8373 98.7324 10.581 98.7324-1.84456L98.7324-43.2207C98.7324-51.8058 96.8002-55.1761 89.3079-59.5279L53.2917-80.4118C44.6345-85.4572 34.1647-81.7719 34.1647-69.3932L34.1647-56.6362L50.2575-47.9455L50.2575-62.6693C50.2575-63.0273 50.6111-63.2754 50.9761-63.085L81.4094-45.4692C82.4661-44.8706 82.6338-44.5214 82.6338-43.3017L82.6338-7.97979C82.6338-7.60907 82.2208-7.32065 81.8564-7.56239L68.4931-15.5722ZM91.4343-8.66007L100.256-3.5837C110.796 2.50818 120.327-1.75368 120.327-14.1734L120.327-55.5496C120.327-64.1402 118.395-67.5104 110.903-71.8568L74.8923-92.7406C66.2352-97.7863 55.7596-94.1011 55.7596-81.7224L55.7596-67.9082L71.8527-60.2667L71.8527-75.0039C71.8527-75.362 72.2061-75.6043 72.5768-75.4196L103.01-57.798C104.061-57.2049 104.234-56.8558 104.234-55.6363L104.234-20.3086C104.234-19.9434 103.821-19.6495 103.457-19.8913L91.4343-27.0749Z"/>
  </g>
  <g id="Heavy-M" transform="matrix(1 0 0 1 2571.66 1126)">
   <path d="M75.0312-31.346C75.0312-39.0916 73.1662-42.3487 66.4072-46.2779L29.672-67.5639C21.908-72.0699 12.4609-68.8377 12.4609-57.744L12.4609-14.4298C12.4609-7.29152 14.0944-4.28763 20.4198-0.655904L56.9197 20.4201C66.5914 26.0087 75.0312 22.1357 75.0312 10.7098ZM59.3997-33.8718C60.5816-33.1917 60.8585-32.7585 60.8585-31.3348L60.8585 5.74202C60.8585 6.14086 60.4625 6.39585 60.0755 6.16353L28.0455-12.8308C26.9367-13.4651 26.6337-14.1197 26.6337-15.3515L26.6337-51.9716C26.6337-52.3535 26.9878-52.5954 27.3867-52.3926ZM67.4929 1.70982L78.4032 8.04123C88.0749 13.6298 96.5147 9.75685 96.5147-1.6691L96.5147-43.7249C96.5147-51.4705 94.6497-54.7276 87.893-58.6568L51.1391-79.9428C43.3915-84.4488 33.9444-81.2166 33.9444-70.1229L33.9444-56.4091L48.1172-48.7914L48.1172-64.3527C48.1172-64.7324 48.4713-64.9907 48.856-64.7715L80.8832-46.2507C82.0651-45.5706 82.3278-45.1373 82.3278-43.7159L82.3278-6.63687C82.3278-6.23803 81.9482-5.98305 81.559-6.23177L67.4929-14.575ZM90.0073-9.4817L99.4875-4.02589C109.159 1.56273 117.601-2.32668 117.601-13.7385L117.601-55.7943C117.601-63.5563 115.734-66.8134 108.977-70.7262L72.2398-92.0122C64.4922-96.5159 55.031-93.2837 55.031-82.19L55.031-67.9936L69.2015-61.2313L69.2015-76.4363C69.2015-76.8159 69.5579-77.0601 69.9568-76.855L101.984-58.3201C103.149-57.6564 103.429-57.2231 103.429-55.7995L103.429-18.7063C103.429-18.3238 103.049-18.0524 102.662-18.3012L90.0073-25.7829Z"/>
  </g>
  <g id="Bold-M" transform="matrix(1 0 0 1 2276.47 1126)">
   <path d="M72.7968-31.971C72.7968-38.7776 71.0069-41.9081 65.0679-45.3645L27.5226-67.1004C20.7639-71.0029 12.4609-68.2775 12.4609-58.6214L12.4609-14.5482C12.4609-8.0891 13.9883-5.16375 19.7903-1.8447L56.8776 19.5713C65.5783 24.5969 72.7968 21.1528 72.7968 10.845ZM59.0574-34.8071C60.3794-34.0358 60.7719-33.5085 60.7719-31.8564L60.7719 7.18321C60.7719 7.61351 60.4011 7.83108 59.9891 7.60317L26.1196-12.2829C24.8312-13.0206 24.4858-13.7428 24.4858-15.205L24.4858-53.913C24.4858-54.322 24.8405-54.5631 25.2708-54.3402ZM66.3739 0.448745L78.1147 7.25346C86.8154 12.2791 94.0339 8.83497 94.0339-1.47284L94.0339-44.2889C94.0339-51.0955 92.244-54.2259 86.3102-57.6824L48.7311-79.4183C42.001-83.3207 33.6981-80.5953 33.6981-70.9392L33.6981-56.1551L45.723-49.7376L45.723-66.2359C45.723-66.6398 46.0777-66.9095 46.4845-66.6581L80.2946-47.125C81.6165-46.3536 81.9855-45.8263 81.9855-44.1794L81.9855-5.13462C81.9855-4.70432 81.6434-4.48675 81.2263-4.74328L66.3739-13.4595ZM88.4109-10.4008L98.6276-4.52053C107.328 0.5051 114.552-2.96765 114.552-13.252L114.552-56.068C114.552-62.9032 112.757-66.0337 106.823-69.4615L69.2726-91.1974C62.5425-95.0947 54.2161-92.3693 54.2161-82.7132L54.2161-68.0892L66.2358-62.3103L66.2358-78.0385C66.2358-78.4424 66.5957-78.6887 67.026-78.4607L100.836-58.9041C102.129-58.1614 102.527-57.6341 102.527-55.982L102.527-16.9137C102.527-16.5121 102.185-16.2659 101.773-16.5224L88.4109-24.3376Z"/>
  </g>
  <g id="Semibold-M" transform="matrix(1 0 0 1 1980.81 1126)">
   <path d="M71.2564-32.4019C71.2564-38.5612 69.5183-41.6044 64.1446-44.7349L26.0408-66.7809C19.9751-70.2673 12.4609-67.8913 12.4609-59.2262L12.4609-14.6299C12.4609-8.63894 13.9152-5.76774 19.3563-2.66425L56.8485 18.9861C64.8798 23.6236 71.2564 20.4752 71.2564 10.9382ZM58.8214-35.452C60.24-34.6177 60.7122-34.0256 60.7122-32.216L60.7122 8.17675C60.7122 8.62874 60.3588 8.82052 59.9296 8.59565L24.7918-11.9052C23.3797-12.7142 23.0051-13.483 23.0051-15.1041L23.0051-55.2513C23.0051-55.679 23.3602-55.9196 23.8122-55.6829ZM65.6026-0.420633L77.9158 6.71038C85.9471 11.3479 92.3237 8.19943 92.3237-1.33753L92.3237-44.6777C92.3237-50.8369 90.5856-53.8801 85.219-57.0106L47.0711-79.0566C41.0424-82.5431 33.5282-80.167 33.5282-71.5019L33.5282-55.98L44.0724-50.3899L44.0724-67.5342C44.0724-67.9547 44.4275-68.2324 44.8495-67.9587L79.8887-47.7277C81.3073-46.8934 81.7496-46.3013 81.7496-44.4988L81.7496-4.09897C81.7496-3.64698 81.4332-3.45521 80.9969-3.71712L65.6026-12.6904ZM87.3105-11.0344L98.0347-4.86154C106.066-0.224021 112.45-3.40954 112.45-12.9166L112.45-56.2567C112.45-62.453 110.704-65.4962 105.338-68.5896L67.227-90.6357C61.1984-94.115 53.6542-91.7389 53.6542-83.0739L53.6542-68.155L64.1913-63.0542L64.1913-79.1431C64.1913-79.5637 64.5535-79.8114 65.0055-79.5676L100.045-59.3067C101.426-58.5095 101.905-57.9174 101.905-56.1078L101.905-15.678C101.905-15.2631 101.589-15.0342 101.16-15.2962L87.3105-23.3413Z"/>
  </g>
  <g id="Medium-M" transform="matrix(1 0 0 1 1684.9 1126)">
   <path d="M70.0884-32.7287C70.0884-38.397 68.3896-41.374 63.4445-44.2574L24.9172-66.5386C19.3771-69.7096 12.4609-67.5984 12.4609-59.6848L12.4609-14.6917C12.4609-9.05586 13.8597-6.22571 19.0272-3.28567L56.8265 18.5424C64.3502 22.8856 70.0884 19.9613 70.0884 11.0089ZM58.6425-35.9409C60.1343-35.0589 60.6669-34.4176 60.6669-32.4887L60.6669 8.9301C60.6669 9.39854 60.3267 9.57076 59.8845 9.34818L23.7851-11.6188C22.2791-12.4818 21.8824-13.2859 21.8824-15.0276L21.8824-56.2662C21.8824-56.708 22.2377-56.9481 22.7062-56.701ZM65.0177-1.07983L77.765 6.2986C85.2887 10.6418 91.0269 7.71754 91.0269-1.23493L91.0269-44.9725C91.0269-50.6408 89.3281-53.6178 84.3916-56.5012L45.8124-78.7824C40.3156-81.9534 33.3995-79.8422 33.3995-71.9286L33.3995-55.8472L42.8209-50.8846L42.8209-68.5186C42.8209-68.9518 43.1763-69.2354 43.6099-68.9448L79.5811-48.1847C81.0728-47.3027 81.5706-46.6614 81.5706-44.7411L81.5706-3.31371C81.5706-2.84527 81.2738-2.67305 80.823-2.93905L65.0177-12.1073ZM86.476-11.5149L97.5852-5.12011C105.109-0.776871 110.856-3.74459 110.856-12.6622L110.856-56.3998C110.856-62.1116 109.148-65.0886 104.212-67.9285L65.6759-90.2097C60.1792-93.3721 53.2282-91.2609 53.2282-83.3473L53.2282-68.205L62.6411-63.6182L62.6411-79.9807C62.6411-80.4139 63.005-80.6627 63.4735-80.407L99.4446-59.612C100.893-58.7735 101.434-58.1322 101.434-56.2032L101.434-14.741C101.434-14.316 101.137-14.1004 100.695-14.3664L86.476-22.5858Z"/>
  </g>
  <g id="Regular-M" transform="matrix(1 0 0 1 1389.23 1126)">
   <path d="M68.5649-33.1548C68.5649-38.183 66.9173-41.0736 62.5313-43.6347L23.4517-66.2226C18.597-68.9821 12.4609-67.2165 12.4609-60.283L12.4609-14.7725C12.4609-9.59966 13.7874-6.82306 18.598-4.09621L56.7978 17.9637C63.6594 21.923 68.5649 19.2912 68.5649 11.1011ZM58.4091-36.5786C59.9964-35.6345 60.6079-34.929 60.6079-32.8443L60.6079 9.91272C60.6079 10.4026 60.2848 10.5493 59.8256 10.3298L22.472-11.2452C20.8435-12.1788 20.4179-13.029 20.4179-14.9277L20.4179-57.5898C20.4179-58.0501 20.7736-58.2897 21.2635-58.029ZM64.2548-1.93966L77.5683 5.76148C84.4299 9.72087 89.3354 7.08898 89.3354-1.10112L89.3354-45.357C89.3354-50.3851 87.6879-53.2758 83.3125-55.8368L44.1706-78.4248C39.3675-81.1843 33.2315-79.4186 33.2315-72.4852L33.2315-55.674L41.1885-51.5297L41.1885-69.8025C41.1885-70.2522 41.5442-70.5437 41.9929-70.2311L79.1797-48.7808C80.767-47.8366 81.3373-47.1312 81.3373-45.057L81.3373-2.28945C81.3373-1.79956 81.0659-1.65284 80.5962-1.92417L64.2548-11.3467ZM85.3876-12.1415L96.9988-5.45737C103.86-1.49798 108.777-4.18162 108.777-12.3305L108.777-56.5864C108.777-61.6663 107.118-64.5569 102.743-67.0662L63.6528-89.6542C58.8498-92.4031 52.6726-90.6375 52.6726-83.704L52.6726-68.2701L60.619-64.3539L60.619-81.0732C60.619-81.5228 60.9853-81.7731 61.4752-81.5017L98.662-60.0102C100.197-59.1178 100.82-58.4123 100.82-56.3276L100.82-13.5188C100.82-13.0807 100.548-12.8822 100.089-13.1536L85.3876-21.6004Z"/>
  </g>
  <g id="Light-M" transform="matrix(1 0 0 1 1093.43 1126)">
   <path d="M66.2891-33.3773C66.2891-37.567 65.0009-39.7903 61.2822-41.9578L21.7749-64.8024C17.4334-67.2881 12.4609-65.4883 12.4609-59.9408L12.4609-13.6774C12.4609-9.41144 13.5137-7.28506 17.5371-4.98598L56.4555 17.4845C62.0167 20.6911 66.2891 18.6409 66.2891 11.8197ZM58.2551-36.493C59.6884-35.6345 60.1801-34.9975 60.1801-33.1694L60.1801 11.2303C60.1801 11.9084 59.7373 12.192 59.0385 11.8184L20.4186-10.4923C18.9784-11.3232 18.5699-12.0365 18.5699-13.7813L18.5699-57.932C18.5699-58.7345 19.1994-59.0597 19.8775-58.6792ZM62.9714-3.17164L77.4657 5.19682C83.0268 8.40333 87.2992 6.35321 87.2992-0.468011L87.2992-45.665C87.2992-49.8547 86.011-52.078 82.32-54.2455L42.7503-77.0901C38.4436-79.5758 33.4711-77.776 33.4711-72.2285L33.4711-54.4249L39.58-51.2388L39.58-70.2474C39.58-71.0222 40.2096-71.3821 40.8807-70.9669L79.2653-48.7808C80.6985-47.9222 81.1833-47.2852 81.1833-45.4848L81.1833-1.05746C81.1833-0.379349 80.7751-0.0957484 80.0486-0.503958L62.9714-10.3543ZM84.2241-13.8526L97.0844-6.43269C102.646-3.22618 106.946-5.31094 106.946-12.1252L106.946-57.3222C106.946-61.5465 105.63-63.7698 101.939-65.9027L62.4037-88.7473C58.0969-91.2054 53.1175-89.4055 53.1175-83.858L53.1175-67.0381L59.1988-64.0459L59.1988-81.9116C59.1988-82.6864 59.856-83.0393 60.5341-82.6311L98.9186-60.4379C100.317-59.614 100.837-58.977 100.837-57.149L100.837-12.7146C100.837-12.0712 100.428-11.7529 99.7296-12.1611L84.2241-21.0699Z"/>
  </g>
  <g id="Thin-M" transform="matrix(1 0 0 1 797.93 1126)">
   <path d="M63.2793-33.6715C63.2793-36.7523 62.4663-38.093 59.6302-39.74L19.5571-62.9241C15.8946-65.0477 12.4609-63.2026 12.4609-59.4882L12.4609-12.229C12.4609-9.1625 13.1516-7.89608 16.134-6.16277L56.0029 16.8509C59.8442 19.0616 63.2793 17.781 63.2793 12.7702ZM58.0515-36.3799C59.2811-35.6345 59.6144-35.088 59.6144-33.5994L59.6144 12.9728C59.6144 13.8999 59.0131 14.3645 57.9975 13.7873L17.703-9.4966C16.5117-10.1917 16.1258-10.7239 16.1258-12.2651L16.1258-58.3847C16.1258-59.6397 17.1174-60.0781 18.0445-59.5391ZM61.2742-4.80105L77.3299 4.45001C81.1711 6.66077 84.6062 5.3801 84.6062 0.369321L84.6062-46.0724C84.6062-49.1531 83.7932-50.4939 81.0074-52.1409L40.872-75.3249C37.2215-77.4486 33.7879-75.6035 33.7879-71.8891L33.7879-52.7729L37.4528-50.8541L37.4528-70.8358C37.4528-72.0406 38.4444-72.491 39.4097-71.94L79.3784-48.7808C80.608-48.0353 80.9796-47.4889 80.9796-46.0506L80.9796 0.571944C80.9796 1.49899 80.3903 1.96364 79.3244 1.37438L61.2742-9.04172ZM82.6852-16.1157L97.1976-7.72263C101.039-5.51187 104.524-6.80456 104.524-11.8536L104.524-58.2953C104.524-61.3881 103.661-62.7288 100.875-64.3638L60.7517-87.5479C57.1012-89.6212 53.7058-87.7761 53.7058-84.0617L53.7058-65.4087L57.3204-63.6386L57.3204-83.0205C57.3204-84.2253 58.3623-84.7139 59.2894-84.1247L99.2581-61.0037C100.476-60.2703 100.859-59.7238 100.859-58.2352L100.859-11.651C100.859-10.736 100.27-10.2593 99.2544-10.8486L82.6852-20.3684Z"/>
  </g>
  <g id="Ultralight-M" transform="matrix(1 0 0 1 501.839 1126)">
   <path d="M61.7376-33.8222C61.7376-36.335 61.168-37.2237 58.784-38.604L18.4211-61.962C15.1064-63.9002 12.4609-62.0319 12.4609-59.2564L12.4609-11.4872C12.4609-9.035 12.9661-8.20905 15.4153-6.76552L55.7711 16.5263C58.7314 18.2271 61.7376 17.3405 61.7376 13.257ZM57.9471-36.3219C59.0724-35.6345 59.3246-35.1344 59.3246-33.8196L59.3246 13.8653C59.3246 14.9199 58.6422 15.4773 57.4643 14.7957L16.312-8.98658C15.2482-9.61215 14.874-10.0517 14.874-11.4884L14.874-58.6165C14.874-60.1034 16.051-60.5997 17.1056-59.9796ZM60.4048-5.63562L77.2603 4.0675C80.2206 5.76824 83.2268 4.88167 83.2268 0.798199L83.2268-46.281C83.2268-48.7938 82.6573-49.6825 80.3352-51.0629L39.9099-74.4208C36.5956-76.359 33.9502-74.4907 33.9502-71.7152L33.9502-51.9267L36.3632-50.6571L36.3632-71.1372C36.3632-72.5622 37.5402-73.059 38.6563-72.4384L79.4364-48.7808C80.5616-48.0933 80.8753-47.5932 80.8753-46.3404L80.8753 1.40652C80.8753 2.46107 80.1933 3.01844 78.9535 2.33646L60.4048-8.36943ZM81.897-17.2748L97.2555-8.38334C100.216-6.68259 103.284-7.56959 103.284-11.7145L103.284-58.7937C103.284-61.3069 102.652-62.1956 100.33-63.5756L59.9055-86.9335C56.5912-88.8098 54.0072-86.9415 54.0072-84.166L54.0072-64.5741L56.3584-63.4299L56.3584-83.5885C56.3584-85.0135 57.5973-85.5717 58.6519-84.8897L99.432-61.2935C100.557-60.6064 100.871-60.1063 100.871-58.7916L100.871-11.1062C100.871-10.0521 100.189-9.49428 99.011-10.1763L81.897-20.009Z"/>
  </g>
  <g id="Black-S" transform="matrix(1 0 0 1 2881.01 696)">
   <path d="M60.8398-31.5918C60.8398-38.5254 59.3262-41.1621 53.2715-44.6777L25.2441-60.9375C18.2129-65.0391 9.76562-62.0117 9.76562-52.002L9.76562-18.75C9.76562-12.5488 11.1328-10.1562 16.5527-7.03125L44.6289 9.17969C53.0762 14.0625 60.8398 10.6445 60.8398 0.683594ZM46.875-33.252C47.6562-32.8125 47.7539-32.5684 47.7539-31.6895L47.7539-4.44336C47.7539-4.15039 47.4121-3.90625 47.1191-4.10156L23.7305-18.1641C23.0469-18.5547 22.8516-18.9941 22.8516-19.7266L22.8516-46.4844C22.8516-46.7773 23.1445-46.9727 23.4375-46.8262ZM53.9062-5.12695L61.7188-0.585938C70.166 4.29688 77.9297 0.878906 77.9297-9.08203L77.9297-41.3574C77.9297-48.291 76.416-50.9277 70.3613-54.4434L42.334-70.7031C35.3027-74.8047 26.8555-71.7773 26.8555-61.7676L26.8555-52.002L39.9414-44.9219L39.9414-56.25C39.9414-56.543 40.2344-56.7383 40.5273-56.5918L63.9648-43.0176C64.7461-42.5781 64.8438-42.334 64.8438-41.4551L64.8438-14.209C64.8438-13.916 64.502-13.6719 64.209-13.8672L53.9062-20.0684ZM72.0215-14.2578L78.8086-10.3516C87.2559-5.46875 95.0195-8.88672 95.0195-18.8477L95.0195-51.123C95.0195-58.0566 93.5059-60.6934 87.4512-64.209L59.4238-80.4688C52.3926-84.5703 43.9453-81.543 43.9453-71.5332L43.9453-60.7422L57.0312-54.541L57.0312-66.0156C57.0312-66.3086 57.3242-66.5039 57.6172-66.3574L81.0547-52.7832C81.8359-52.3438 81.9336-52.0996 81.9336-51.2207L81.9336-23.9746C81.9336-23.6816 81.5918-23.4375 81.2988-23.6328L72.0215-29.1992Z"/>
  </g>
  <g id="Heavy-S" transform="matrix(1 0 0 1 2585.35 696)">
   <path d="M59.4223-32.0413C59.4223-38.364 57.9202-40.9892 52.4071-44.1937L23.8151-60.7646C17.4868-64.4398 9.76562-61.8043 9.76562-52.7165L9.76562-18.9805C9.76562-13.1827 11.0867-10.767 16.207-7.82644L44.6404 8.59194C52.5115 13.1405 59.4223 9.97611 59.4223 0.695118ZM46.633-33.978C47.541-33.4579 47.7424-33.1331 47.7424-32.0467L47.7424-3.50988C47.7424-3.21691 47.4352-3.01887 47.1537-3.19113L22.5204-17.8414C21.6755-18.3242 21.4456-18.8328 21.4456-19.7611L21.4456-47.9249C21.4456-48.1949 21.704-48.3786 21.9969-48.2322ZM53.2148-5.93367L61.5113-1.11606C69.3824 3.43254 76.2932 0.26811 76.2932-9.01288L76.2932-41.7493C76.2932-48.0721 74.7911-50.6972 69.278-53.9017L40.6745-70.4726C34.3577-74.1478 26.6365-71.5123 26.6365-62.4245L26.6365-51.9674L38.3165-45.6825L38.3165-57.6329C38.3165-57.9029 38.5749-58.0982 38.8563-57.9402L63.5039-43.686C64.4119-43.1659 64.6017-42.8411 64.6017-41.7547L64.6017-13.2179C64.6017-12.9249 64.306-12.7269 64.0246-12.9107L53.2148-19.3423ZM70.9497-14.7418L78.1402-10.6051C86.0112-6.0565 92.9221-9.23245 92.9221-18.5019L92.9221-51.2383C92.9221-57.5726 91.4199-60.1978 85.9069-63.3907L57.3149-79.9617C50.9981-83.6368 43.2654-81.0013 43.2654-71.9135L43.2654-60.9727L54.9453-55.4054L54.9453-67.1335C54.9453-67.4034 55.2037-67.5872 55.4967-67.4407L80.1443-53.175C81.0407-52.6664 81.2421-52.3416 81.2421-51.2553L81.2421-22.7069C81.2421-22.4255 80.9464-22.2159 80.665-22.3997L70.9497-28.162Z"/>
  </g>
  <g id="Bold-S" transform="matrix(1 0 0 1 2289.81 696)">
   <path d="M57.8369-32.5439C57.8369-38.1836 56.3477-40.7959 51.4404-43.6523L22.2168-60.5713C16.6748-63.7695 9.76562-61.5723 9.76562-53.5156L9.76562-19.2383C9.76562-13.8916 11.0352-11.4502 15.8203-8.71582L44.6533 7.93457C51.8799 12.1094 57.8369 9.22852 57.8369 0.708008ZM46.3623-34.79C47.4121-34.1797 47.7295-33.7646 47.7295-32.4463L47.7295-2.46582C47.7295-2.17285 47.4609-2.02637 47.1924-2.17285L21.167-17.4805C20.1416-18.0664 19.873-18.6523 19.873-19.7998L19.873-49.5361C19.873-49.7803 20.0928-49.9512 20.3857-49.8047ZM52.4414-6.83594L61.2793-1.70898C68.5059 2.46582 74.4629-0.415039 74.4629-8.93555L74.4629-42.1875C74.4629-47.8271 72.9736-50.4395 68.0664-53.2959L38.8184-70.2148C33.3008-73.4131 26.3916-71.2158 26.3916-63.1592L26.3916-51.9287L36.499-46.5332L36.499-59.1797C36.499-59.4238 36.7188-59.6191 36.9873-59.4482L62.9883-44.4336C64.0381-43.8232 64.3311-43.4082 64.3311-42.0898L64.3311-12.1094C64.3311-11.8164 64.0869-11.6699 63.8184-11.8408L52.4414-18.5303ZM69.751-15.2832L77.3926-10.8887C84.6191-6.71387 90.5762-9.61914 90.5762-18.1152L90.5762-51.3672C90.5762-57.0312 89.0869-59.6436 84.1797-62.4756L54.9561-79.3945C49.4385-82.5928 42.5049-80.3955 42.5049-72.3389L42.5049-61.2305L52.6123-56.3721L52.6123-68.3838C52.6123-68.6279 52.832-68.7988 53.125-68.6523L79.126-53.6133C80.1514-53.0273 80.4688-52.6123 80.4688-51.2939L80.4688-21.2891C80.4688-21.0205 80.2246-20.8496 79.9561-21.0205L69.751-27.002Z"/>
  </g>
  <g id="Semibold-S" transform="matrix(1 0 0 1 1993.9 696)">
   <path d="M56.7438-32.8905C56.7438-38.0592 55.2635-40.6626 50.7739-43.2791L21.1148-60.438C16.1149-63.3074 9.76562-61.4123 9.76562-54.0666L9.76562-19.416C9.76562-14.3804 10.9996-11.9212 15.5537-9.329L44.6622 7.48135C51.4444 11.3984 56.7438 8.71309 56.7438 0.716895ZM46.1757-35.3499C47.3232-34.6773 47.7206-34.2001 47.7206-32.7218L47.7206-1.746C47.7206-1.45303 47.4787-1.34209 47.219-1.4708L20.2339-17.2316C19.0841-17.8887 18.7889-18.5279 18.7889-19.8265L18.7889-50.647C18.7889-50.8733 18.9819-51.0354 19.2749-50.8889ZM51.9082-7.45801L61.1193-2.11777C67.9016 1.79932 73.201-0.886035 73.201-8.88223L73.201-42.4896C73.201-47.6583 71.7206-50.2617 67.2311-52.8782L37.5387-70.0371C32.5721-72.9065 26.2228-71.0114 26.2228-63.6657L26.2228-51.9021L35.246-47.1197L35.246-60.2461C35.246-60.4725 35.4391-60.6678 35.6987-60.488L62.6328-44.949C63.7804-44.2765 64.1444-43.7992 64.1444-42.3209L64.1444-11.3451C64.1444-11.0521 63.9358-10.9412 63.6762-11.1032L51.9082-17.9704ZM68.9245-15.6564L76.8771-11.0842C83.6594-7.16709 88.9588-9.88574 88.9588-17.8486L88.9588-51.4561C88.9588-56.658 87.4784-59.2614 82.9889-61.8446L53.3298-79.0035C48.3632-81.8729 41.9806-79.9778 41.9806-72.6321L41.9806-61.4082L51.0038-57.0386L51.0038-69.2458C51.0038-69.4722 51.1969-69.6342 51.4898-69.4877L78.4239-53.9154C79.5382-53.2762 79.9355-52.7989 79.9355-51.3206L79.9355-20.3115C79.9355-20.0519 79.727-19.9076 79.4673-20.0696L68.9245-26.2021Z"/>
  </g>
  <g id="Medium-S" transform="matrix(1 0 0 1 1697.81 696)">
   <path d="M55.915-33.1533C55.915-37.9648 54.4414-40.5615 50.2686-42.9961L20.2793-60.3369C15.6904-62.957 9.76562-61.291 9.76562-54.4844L9.76562-19.5508C9.76562-14.751 10.9727-12.2783 15.3516-9.79395L44.6689 7.1377C51.1143 10.8594 55.915 8.32227 55.915 0.723633ZM46.0342-35.7744C47.2559-35.0547 47.7139-34.5303 47.7139-32.9307L47.7139-1.2002C47.7139-0.907227 47.4922-0.823242 47.2393-0.938477L19.5264-17.043C18.2822-17.7539 17.9668-18.4336 17.9668-19.8467L17.9668-51.4893C17.9668-51.7021 18.1396-51.8574 18.4326-51.7109ZM51.5039-7.92969L60.998-2.42773C67.4434 1.29395 72.2441-1.24316 72.2441-8.8418L72.2441-42.7188C72.2441-47.5303 70.7705-50.127 66.5977-52.5615L36.5684-69.9023C32.0195-72.5225 26.0947-70.8564 26.0947-64.0498L26.0947-51.8818L34.2959-47.5645L34.2959-61.0547C34.2959-61.2676 34.4688-61.4629 34.7217-61.2764L62.3633-45.3398C63.585-44.6201 64.0029-44.0957 64.0029-42.4961L64.0029-10.7656C64.0029-10.4727 63.8213-10.3887 63.5684-10.5439L51.5039-17.5459ZM68.2979-15.9395L76.4863-11.2324C82.9316-7.51074 87.7324-10.0879 87.7324-17.6465L87.7324-51.5234C87.7324-56.375 86.2588-58.9717 82.0859-61.3662L52.0967-78.707C47.5479-81.3271 41.583-79.6611 41.583-72.8545L41.583-61.543L49.7842-57.5439L49.7842-69.8994C49.7842-70.1123 49.957-70.2676 50.25-70.1211L77.8916-54.1445C79.0732-53.4648 79.5312-52.9404 79.5312-51.3408L79.5312-19.5703C79.5312-19.3174 79.3496-19.1934 79.0967-19.3486L68.2979-25.5957Z"/>
  </g>
  <g id="Regular-S" transform="matrix(1 0 0 1 1401.9 696)">
   <path d="M54.834-33.4961C54.834-37.8418 53.3691-40.4297 49.6094-42.627L19.1895-60.2051C15.1367-62.5 9.76562-61.1328 9.76562-55.0293L9.76562-19.7266C9.76562-15.2344 10.9375-12.7441 15.0879-10.4004L44.6777 6.68945C50.6836 10.1562 54.834 7.8125 54.834 0.732422ZM45.8496-36.3281C47.168-35.5469 47.7051-34.9609 47.7051-33.2031L47.7051-0.488281C47.7051-0.195312 47.5098-0.146484 47.2656-0.244141L18.6035-16.7969C17.2363-17.5781 16.8945-18.3105 16.8945-19.873L16.8945-52.5879C16.8945-52.7832 17.041-52.9297 17.334-52.7832ZM50.9766-8.54492L60.8398-2.83203C66.8457 0.634766 70.9961-1.70898 70.9961-8.78906L70.9961-43.0176C70.9961-47.3633 69.5312-49.9512 65.7715-52.1484L35.3027-69.7266C31.2988-72.0215 25.9277-70.6543 25.9277-64.5508L25.9277-51.8555L33.0566-48.1445L33.0566-62.1094C33.0566-62.3047 33.2031-62.5 33.4473-62.3047L62.0117-45.8496C63.3301-45.0684 63.8184-44.4824 63.8184-42.7246L63.8184-10.0098C63.8184-9.7168 63.6719-9.66797 63.4277-9.81445L50.9766-16.9922ZM67.4805-16.3086L75.9766-11.4258C81.9824-7.95898 86.1328-10.3516 86.1328-17.3828L86.1328-51.6113C86.1328-56.0059 84.668-58.5938 80.9082-60.7422L50.4883-78.3203C46.4844-80.6152 41.0645-79.248 41.0645-73.1445L41.0645-61.7188L48.1934-58.2031L48.1934-70.752C48.1934-70.9473 48.3398-71.0938 48.6328-70.9473L77.1973-54.4434C78.4668-53.7109 79.0039-53.125 79.0039-51.3672L79.0039-18.6035C79.0039-18.3594 78.8574-18.2617 78.6133-18.4082L67.4805-24.8047Z"/>
  </g>
  <g id="Light-S" transform="matrix(1 0 0 1 1105.99 696)">
   <path d="M52.8208-33.6929C52.8208-37.2969 51.6738-39.2944 48.5044-41.1436L17.7061-58.9487C14.1074-61.0015 9.76562-59.604 9.76562-54.7266L9.76562-18.7578C9.76562-15.0679 10.6953-13.1528 14.1494-11.1875L44.375 6.26563C49.2305 9.06641 52.8208 7.23731 52.8208 1.36816ZM45.7134-36.2524C46.8955-35.5469 47.3267-35.0215 47.3267-33.4907L47.3267 0.677237C47.3267 1.13671 47.0254 1.30663 46.5693 1.07274L16.7871-16.1309C15.5864-16.8213 15.2598-17.4326 15.2598-18.8589L15.2598-52.8906C15.2598-53.3887 15.6484-53.6108 16.1079-53.3584ZM49.8413-9.63476L60.749-3.33154C65.6045-0.530753 69.1948-2.35986 69.1948-8.22901L69.1948-43.29C69.1948-46.894 68.0479-48.8916 64.8936-50.7407L34.0464-68.5459C30.4815-70.5986 26.1396-69.2012 26.1396-64.3237L26.1396-50.7505L31.6338-47.8872L31.6338-62.5029C31.6338-62.9858 32.0225-63.2417 32.4634-62.9556L62.0874-45.8496C63.2695-45.144 63.6821-44.6187 63.6821-43.103L63.6821-8.91993C63.6821-8.46046 63.4146-8.29054 62.9434-8.55812L49.8413-16.1143ZM66.4512-17.8223L76.0522-12.2886C80.9077-9.48778 84.5132-11.3506 84.5132-17.2012L84.5132-52.2622C84.5132-55.8999 83.3511-57.8975 80.1968-59.7129L49.3833-77.5181C45.8184-79.5557 41.458-78.1582 41.458-73.2808L41.458-60.6289L46.937-57.9307L46.937-71.4936C46.937-71.9766 47.3408-72.2139 47.8003-71.9463L77.4243-54.8218C78.5728-54.1499 79.019-53.6245 79.019-52.0937L79.019-17.8921C79.019-17.4663 78.7515-17.2627 78.2954-17.5303L66.4512-24.3355Z"/>
  </g>
  <g id="Thin-S" transform="matrix(1 0 0 1 810.354 696)">
   <path d="M50.1582-33.9531C50.1582-36.5762 49.4317-37.793 47.043-39.1817L15.7442-57.2871C12.7461-59.0196 9.76562-57.5821 9.76562-54.3262L9.76562-17.4766C9.76562-14.8477 10.375-13.6934 12.9082-12.2285L43.9746 5.70509C47.3086 7.62502 50.1582 6.47657 50.1582 2.20897ZM45.5332-36.1523C46.5352-35.5469 46.8262-35.1016 46.8262-33.8711L46.8262 2.21873C46.8262 2.89841 46.3848 3.22849 45.6485 2.81443L14.3848-15.25C13.4043-15.8203 13.0977-16.2715 13.0977-17.5176L13.0977-53.291C13.0977-54.1894 13.8067-54.5117 14.4864-54.1191ZM48.3399-11.0762L60.6289-3.99218C63.9629-2.07224 66.8125-3.22069 66.8125-7.48829L66.8125-43.6504C66.8125-46.2734 66.086-47.4903 63.7324-48.8789L32.3848-66.9844C29.4004-68.7168 26.4199-67.2793 26.4199-64.0234L26.4199-49.2891L29.752-47.5469L29.752-63.0234C29.752-63.8867 30.461-64.2226 31.1621-63.8164L62.1875-45.8496C63.1895-45.2441 63.502-44.7988 63.502-43.6035L63.502-7.47854C63.502-6.79885 63.0742-6.46878 62.3027-6.89651L48.3399-14.9531ZM65.0899-19.8242L76.1523-13.4297C79.4863-11.5097 82.3711-12.6719 82.3711-16.9609L82.3711-53.123C82.3711-55.7598 81.6094-56.9766 79.2559-58.3516L47.9219-76.457C44.9375-78.1543 41.9785-76.7168 41.9785-73.4609L41.9785-59.1875L45.2754-57.5703L45.2754-72.4746C45.2754-73.3379 46.0195-73.6953 46.6992-73.2676L77.7246-55.3223C78.7129-54.7305 79.0391-54.2851 79.0391-53.0547L79.0391-16.9512C79.0391-16.2852 78.6113-15.9414 77.875-16.3692L65.0899-23.7149Z"/>
  </g>
  <g id="Ultralight-S" transform="matrix(1 0 0 1 514.191 696)">
   <path d="M48.7945-34.0864C48.7945-36.207 48.2832-37.024 46.2945-38.1768L14.7393-56.4361C12.0489-58.0044 9.76562-56.5464 9.76562-54.1211L9.76562-16.8203C9.76562-14.7349 10.2109-13.9702 12.2725-12.7617L43.7695 5.41798C46.3243 6.88674 48.7945 6.08693 48.7945 2.63963ZM45.4409-36.1011C46.3506-35.5469 46.5698-35.1426 46.5698-34.0659L46.5698 3.00827C46.5698 3.80075 46.0567 4.21286 45.1768 3.70651L13.1543-14.7988C12.2867-15.3076 11.9903-15.6768 11.9903-16.8306L11.9903-53.4961C11.9903-54.5996 12.8633-54.9731 13.6558-54.5088ZM47.5708-11.8144L60.5674-4.33055C63.1221-2.86179 65.5923-3.66161 65.5923-7.1089L65.5923-43.835C65.5923-45.9556 65.0811-46.7725 63.1377-47.9253L31.5337-66.1846C28.8467-67.753 26.5635-66.295 26.5635-63.8696L26.5635-48.5406L28.7881-47.3726L28.7881-63.29C28.7881-64.3481 29.6612-64.7251 30.4956-64.2573L62.2388-45.8496C63.1484-45.2954 63.4097-44.8911 63.4097-43.8599L63.4097-6.74026C63.4097-5.94778 62.8999-5.53568 61.9746-6.04544L47.5708-14.3584ZM64.3926-20.8496L76.2036-14.0141C78.7583-12.5454 81.274-13.3486 81.274-16.8379L81.274-53.5639C81.274-55.688 80.7173-56.5049 78.7739-57.6543L47.1734-75.9136C44.4863-77.4365 42.2451-75.9785 42.2451-73.5532L42.2451-58.4492L44.4243-57.3857L44.4243-72.977C44.4243-74.0351 45.3428-74.4541 46.1353-73.9443L77.8784-55.5786C78.7847-55.0278 79.0493-54.6235 79.0493-53.5469L79.0493-16.4693C79.0493-15.6802 78.5396-15.2647 77.6597-15.7744L64.3926-23.397Z"/>
  </g>
 </g>
</svg>
